<?xml version="1.0" standalone="no"?>
<!DOCTYPE svg PUBLIC "-//W3C//DTD SVG 20010904//EN"
 "http://www.w3.org/TR/2001/REC-SVG-20010904/DTD/svg10.dtd">
<svg version="1.0" xmlns="http://www.w3.org/2000/svg"
 width="345.000000pt" height="345.000000pt" viewBox="0 0 345.000000 345.000000"
 preserveAspectRatio="xMidYMid meet">
<metadata>
Created by potrace 1.14, written by Peter Selinger 2001-2017
</metadata>
<g transform="translate(0.000000,345.000000) scale(0.100000,-0.100000)"
fill="#000000" stroke="none">
<path d="M1654 3189 c-220 -28 -397 -149 -573 -392 -33 -47 -61 -90 -61 -97 0
-6 20 -20 45 -31 l45 -20 0 -157 -1 -157 -31 -20 c-75 -48 -98 -137 -58 -219
23 -49 87 -96 128 -96 18 0 22 -6 22 -33 0 -148 122 -340 274 -432 61 -36 66
-43 64 -70 -3 -32 0 -31 -158 -66 -134 -29 -263 -136 -331 -274 -36 -75 -43
-99 -65 -262 -4 -24 -10 -33 -24 -33 -23 0 -31 -36 -24 -105 3 -27 7 -98 10
-157 5 -93 3 -108 -10 -108 -9 0 -23 -11 -32 -25 -21 -32 -53 -34 -52 -2 1 12
1 113 0 225 -2 201 -2 203 -27 227 -21 22 -33 25 -90 25 l-65 0 0 88 c1 87 1
87 33 107 61 39 58 128 -6 161 -64 34 -137 -10 -137 -82 0 -35 5 -47 31 -68
17 -14 35 -26 40 -26 5 0 9 -40 9 -90 l0 -90 -60 0 c-74 0 -114 -19 -129 -61
-7 -19 -11 -112 -11 -234 l0 -203 -25 -16 c-14 -9 -27 -27 -31 -40 -7 -28 18
-81 41 -90 9 -3 618 -6 1354 -6 1027 0 1340 3 1349 12 9 9 12 111 12 399 0
353 -2 389 -17 405 -16 15 -38 16 -245 11 l-228 -5 0 64 0 64 131 0 c152 0
183 11 200 70 6 22 9 146 7 327 l-3 291 -24 26 -24 26 -311 2 c-277 3 -311 5
-314 19 -2 12 7 18 33 22 86 14 151 106 143 199 -6 55 -29 93 -76 123 l-31 20
-1 205 c0 177 -3 211 -19 245 -22 48 -69 91 -111 100 -24 5 -35 18 -59 69 -83
172 -281 264 -507 235z m260 -65 c60 -21 132 -71 166 -114 30 -38 75 -128 68
-136 -2 -2 -21 19 -42 46 -86 112 -211 194 -316 207 -27 3 -50 10 -50 16 0 13
120 0 174 -19z m330 -293 c59 -33 66 -64 66 -288 0 -196 -1 -203 -20 -203 -19
0 -20 7 -20 198 0 222 -6 246 -71 272 -19 7 -35 14 -37 15 -1 1 0 10 4 19 7
19 30 15 78 -13z m-104 -247 l80 -95 0 -197 c0 -108 -5 -213 -10 -232 -12 -43
-37 -78 -118 -165 -72 -78 -95 -82 -161 -30 l-44 35 -154 0 c-160 0 -174 -3
-226 -46 -16 -13 -38 -24 -50 -24 -32 0 -136 114 -177 195 l-35 69 -3 211 -3
210 123 1 c113 0 176 9 265 41 10 3 1 -12 -22 -36 l-39 -41 45 0 c103 0 257
62 369 149 36 27 68 50 72 50 4 1 43 -42 88 -95z m-960 -336 c0 -40 -3 -49
-12 -40 -14 14 -54 16 -62 3 -4 -5 3 -7 13 -4 10 3 28 0 40 -6 18 -10 21 -21
21 -86 0 -71 -1 -75 -22 -75 -34 0 -85 35 -104 71 -11 22 -15 47 -12 81 7 69
45 106 111 107 26 1 27 -1 27 -51z m1209 7 c31 -35 33 -41 29 -91 -3 -39 -11
-61 -29 -80 -23 -25 -76 -54 -99 -54 -6 0 -10 33 -10 85 0 91 5 99 53 74 22
-12 22 -12 3 10 -11 11 -30 21 -43 21 -20 0 -23 5 -23 41 l0 42 42 -6 c33 -4
51 -15 77 -42z m518 -362 c10 -13 13 -89 13 -308 0 -247 -2 -294 -16 -313 -8
-12 -22 -22 -30 -22 -10 0 -9 5 6 20 19 19 20 33 20 313 0 215 -3 296 -12 305
-9 9 -92 12 -311 12 -164 0 -296 3 -294 8 3 4 142 6 308 5 275 -2 305 -4 316
-20z m-827 -402 l0 -78 -62 17 c-53 14 -63 21 -66 41 -2 20 8 30 60 61 35 20
64 37 66 38 1 0 2 -35 2 -79z m-425 -43 c68 -18 71 -18 145 1 41 11 82 22 90
25 12 5 16 -6 18 -59 3 -52 -1 -76 -19 -111 -50 -104 -183 -134 -275 -62 -41
33 -64 93 -64 172 0 61 2 67 18 61 9 -5 48 -16 87 -27z m344 -57 c16 -10 9
-81 -15 -136 -31 -74 -117 -142 -201 -158 -33 -6 -33 -6 -33 31 0 36 2 38 44
50 83 22 146 101 146 182 0 35 3 40 23 40 12 0 28 -4 36 -9z m-489 -18 c0 -92
71 -172 183 -207 12 -4 17 -16 17 -41 0 -36 -1 -36 -32 -30 -96 20 -175 83
-215 171 -34 74 -35 106 -3 115 41 12 50 10 50 -8z m639 -34 c111 -54 212
-152 262 -253 30 -62 34 -81 37 -168 4 -93 3 -98 -16 -98 -18 0 -20 7 -21 80
-1 122 -39 208 -134 301 -50 49 -158 120 -204 134 -21 6 -34 45 -16 45 3 0 45
-19 92 -41z m-1485 -115 c36 -35 9 -94 -43 -94 -34 0 -53 21 -53 57 0 47 62
71 96 37z m2398 -206 c2 -18 2 -160 0 -315 l-3 -283 -169 0 -169 0 -3 288 c-2
158 -1 297 1 309 3 22 7 23 155 26 83 1 159 4 168 5 12 1 18 -7 20 -30z m-962
-163 c0 -31 -7 -69 -15 -85 -18 -35 -68 -64 -95 -55 -31 10 -70 64 -70 96 0
39 24 38 61 -2 l29 -31 20 25 c11 14 29 29 40 32 11 4 20 11 20 16 0 15 -26
10 -52 -10 -24 -19 -25 -19 -71 2 -36 17 -47 27 -47 45 0 21 3 22 90 22 l90 0
0 -55z m580 -250 l0 -305 -35 0 -34 0 -3 73 c-3 70 -4 72 -35 87 l-33 15 0
168 0 167 -25 10 c-21 8 -25 16 -25 50 l0 40 95 0 95 0 0 -305z m-1918 233 c3
-7 3 -88 0 -180 -3 -124 -8 -168 -17 -168 -9 0 -14 45 -18 173 -3 94 -3 175 0
180 7 11 30 8 35 -5z m368 -86 l0 -38 -90 -3 -90 -2 0 40 0 41 90 0 90 0 0
-38z m1370 -8 l0 -37 -87 6 c-49 4 -105 7 -125 7 -35 0 -38 2 -38 30 l0 30
125 0 125 0 0 -36z m0 -159 c0 -88 -1 -95 -20 -95 -19 0 -20 7 -20 95 0 88 1
95 20 95 19 0 20 -7 20 -95z m-582 -87 c7 -7 12 -16 12 -20 0 -4 -65 -8 -145
-8 -121 0 -145 2 -145 15 0 12 23 15 128 18 70 1 129 4 133 5 3 1 10 -3 17
-10z m492 -93 l0 -25 -680 0 c-672 0 -680 0 -680 20 0 19 8 20 413 23 226 1
532 3 680 5 l267 2 0 -25z m158 -3 c3 -21 0 -22 -57 -22 -52 0 -61 3 -61 18 0
26 2 27 62 27 47 -1 53 -3 56 -23z"/>
<path d="M1399 2435 c-15 -8 -32 -29 -38 -46 -15 -42 -15 -42 16 -22 32 21
126 23 161 4 13 -7 26 -10 29 -7 11 11 -19 64 -43 75 -34 15 -93 13 -125 -4z"/>
<path d="M1923 2438 c-20 -10 -49 -65 -39 -75 2 -3 15 1 28 8 12 7 52 13 87
13 57 0 66 -3 87 -28 27 -31 31 -21 10 29 -8 19 -28 41 -45 49 -34 18 -95 20
-128 4z"/>
<path d="M1450 2307 c-15 -7 -31 -29 -39 -52 -38 -110 90 -187 134 -81 9 22
12 47 8 68 -6 32 -7 32 -13 8 -4 -18 -13 -25 -30 -25 -21 0 -26 6 -28 33 -3
26 1 34 20 41 13 6 18 10 11 10 -6 1 -17 3 -25 6 -7 3 -24 -1 -38 -8z"/>
<path d="M1929 2291 c-39 -40 -41 -109 -4 -146 32 -33 60 -31 96 4 23 23 29
38 29 71 0 33 -6 48 -29 71 -16 16 -37 29 -46 29 -9 0 -30 -13 -46 -29z m91
-5 c6 -8 10 -25 8 -38 -2 -17 -10 -23 -28 -23 -18 0 -26 6 -28 23 -3 22 13 52
28 52 4 0 13 -7 20 -14z"/>
<path d="M1670 1985 c0 -3 11 -12 25 -21 21 -14 30 -14 55 -4 39 16 39 31 -1
20 -18 -5 -40 -5 -55 0 -13 5 -24 7 -24 5z"/>
<path d="M2766 978 c-9 -12 -16 -29 -16 -38 0 -9 7 -26 16 -38 22 -32 70 -26
97 11 l21 27 -21 28 c-27 36 -75 42 -97 10z m69 -38 c0 -8 -10 -16 -22 -18
-18 -3 -23 2 -23 18 0 16 5 21 23 18 12 -2 22 -10 22 -18z"/>
<path d="M2917 982 c-38 -42 -6 -107 49 -100 15 2 36 15 47 31 l21 27 -21 28
c-25 34 -72 41 -96 14z m68 -32 c9 -15 -14 -40 -31 -33 -22 8 -18 43 5 43 11
0 23 -5 26 -10z"/>
<path d="M2770 830 c-27 -27 -23 -67 11 -92 21 -16 30 -17 51 -8 14 7 31 24
38 38 25 56 -56 106 -100 62z m66 -31 c8 -14 -21 -43 -35 -35 -19 12 -13 46 8
46 11 0 23 -5 27 -11z"/>
<path d="M2917 832 c-37 -41 -11 -102 43 -102 36 0 60 23 60 59 0 54 -68 82
-103 43z m61 -44 c-2 -13 -10 -23 -18 -23 -8 0 -16 10 -18 23 -3 17 2 22 18
22 16 0 21 -5 18 -22z"/>
<path d="M2770 680 c-11 -11 -20 -29 -20 -40 0 -27 35 -60 63 -60 50 0 76 70
39 103 -25 23 -58 21 -82 -3z m65 -40 c0 -8 -10 -16 -22 -18 -18 -3 -23 2 -23
18 0 16 5 21 23 18 12 -2 22 -10 22 -18z"/>
<path d="M2906 675 c-15 -54 7 -95 51 -95 47 0 70 71 34 104 -25 23 -78 18
-85 -9z m70 -44 c-9 -14 -33 -14 -41 -1 -4 6 -1 18 6 26 11 13 14 13 27 0 8
-8 11 -19 8 -25z"/>
<path d="M2762 533 c3 -16 16 -18 123 -18 100 0 120 3 120 15 0 12 -22 15
-123 18 -114 2 -123 1 -120 -15z"/>
<path d="M2767 484 c-4 -4 -7 -13 -7 -21 0 -11 24 -13 123 -11 100 3 122 6
122 18 0 12 -21 16 -116 18 -63 1 -118 -1 -122 -4z"/>
<path d="M2591 2548 c-52 -36 -74 -71 -79 -130 -3 -44 0 -59 20 -88 71 -104
197 -108 271 -8 31 41 34 118 8 165 -32 55 -66 76 -131 81 -45 3 -61 0 -89
-20z m107 -84 c2 -12 14 -26 28 -33 31 -14 29 -45 -3 -49 -14 -2 -23 -12 -25
-25 -2 -14 -10 -22 -23 -22 -13 0 -21 8 -23 22 -2 14 -11 23 -25 25 -34 5 -35
45 -3 54 15 4 26 13 26 23 0 37 43 41 48 5z"/>
<path d="M603 2433 c-18 -7 -16 -30 3 -37 9 -3 69 -6 134 -6 85 0 121 4 129
13 23 28 -9 37 -134 36 -66 0 -126 -3 -132 -6z"/>
<path d="M444 2339 c-14 -23 17 -30 122 -27 94 3 109 5 112 21 3 15 -7 17
-112 17 -72 0 -117 -4 -122 -11z"/>
<path d="M727 2343 c-11 -18 11 -35 39 -31 40 4 38 32 -3 36 -17 2 -33 -1 -36
-5z"/>
<path d="M543 2255 c-8 -22 -5 -24 68 -26 75 -2 96 5 78 27 -17 21 -138 19
-146 -1z"/>
<path d="M2706 2232 c-2 -4 -1 -13 3 -20 6 -9 48 -12 162 -10 129 3 154 5 154
18 0 13 -25 15 -157 18 -86 1 -159 -1 -162 -6z"/>
<path d="M3060 2219 c0 -16 5 -20 27 -17 17 2 29 10 31 21 3 13 -3 17 -27 17
-25 0 -31 -4 -31 -21z"/>
<path d="M2852 2133 c3 -16 15 -18 88 -18 73 0 85 2 88 18 3 15 -6 17 -88 17
-82 0 -91 -2 -88 -17z"/>
<path d="M325 1994 l-25 -27 0 -278 c0 -266 1 -280 20 -299 19 -19 33 -20 393
-20 321 0 376 2 395 16 22 15 22 17 22 300 l0 285 -25 24 -24 25 -366 0 -366
0 -24 -26z m545 -129 l0 -35 -150 0 -150 0 0 35 0 35 150 0 150 0 0 -35z m130
0 c0 -35 0 -35 -45 -35 -45 0 -45 0 -45 35 0 35 0 35 45 35 45 0 45 0 45 -35z
m-130 -110 l0 -35 -150 0 -150 0 0 35 0 35 150 0 150 0 0 -35z m130 0 c0 -35
0 -35 -45 -35 -45 0 -45 0 -45 35 0 35 0 35 45 35 45 0 45 0 45 -35z m-480
-110 c0 -34 -1 -35 -40 -35 -39 0 -40 1 -40 35 0 34 1 35 40 35 39 0 40 -1 40
-35z m350 0 l0 -35 -150 0 -150 0 0 35 0 35 150 0 150 0 0 -35z m130 0 c0 -35
0 -35 -45 -35 -45 0 -45 0 -45 35 0 35 0 35 45 35 45 0 45 0 45 -35z m-470
-109 c0 -43 -5 -46 -58 -39 -40 5 -42 7 -42 39 l0 34 50 0 50 0 0 -34z m340
-1 l0 -35 -150 0 -150 0 0 35 0 35 150 0 150 0 0 -35z m130 -5 l0 -40 -45 0
-45 0 0 40 0 40 45 0 45 0 0 -40z"/>
<path d="M267 303 c-29 -3 -37 -8 -35 -21 2 -13 16 -18 56 -20 46 -3 52 -1 52
16 0 16 -25 38 -33 30 -1 -1 -19 -3 -40 -5z"/>
<path d="M3122 283 c4 -22 77 -31 89 -12 13 21 0 29 -47 29 -38 0 -45 -3 -42
-17z"/>
</g>
</svg>
